<?xml version="1.0" encoding="UTF-8" standalone="no"?>
<!-- Generator: Adobe Illustrator 18.1.1, SVG Export Plug-In . SVG Version: 6.00 Build 0)  -->

<svg
   xmlns:dc="http://purl.org/dc/elements/1.1/"
   xmlns:cc="http://creativecommons.org/ns#"
   xmlns:rdf="http://www.w3.org/1999/02/22-rdf-syntax-ns#"
   xmlns:svg="http://www.w3.org/2000/svg"
   xmlns="http://www.w3.org/2000/svg"
   xmlns:sodipodi="http://sodipodi.sourceforge.net/DTD/sodipodi-0.dtd"
   xmlns:inkscape="http://www.inkscape.org/namespaces/inkscape"
   version="1.1"
   id="Capa_1"
   x="0px"
   y="0px"
   viewBox="0 0 38.044 38.044"
   style="enable-background:new 0 0 38.044 38.044;"
   xml:space="preserve"
   sodipodi:docname="logo.svg"
   inkscape:version="0.92.2 5c3e80d, 2017-08-06"><metadata
     id="metadata43"><rdf:RDF><cc:Work
         rdf:about=""><dc:format>image/svg+xml</dc:format><dc:type
           rdf:resource="http://purl.org/dc/dcmitype/StillImage" /></cc:Work></rdf:RDF></metadata><defs
     id="defs41" /><sodipodi:namedview
     pagecolor="#ffffff"
     bordercolor="#666666"
     borderopacity="1"
     objecttolerance="10"
     gridtolerance="10"
     guidetolerance="10"
     inkscape:pageopacity="0"
     inkscape:pageshadow="2"
     inkscape:window-width="1920"
     inkscape:window-height="919"
     id="namedview39"
     showgrid="false"
     inkscape:zoom="6.2033437"
     inkscape:cx="19.021999"
     inkscape:cy="57.710812"
     inkscape:window-x="0"
     inkscape:window-y="0"
     inkscape:window-maximized="1"
     inkscape:current-layer="Capa_1" /><g
     id="g6"><g
       id="g4"><path
         style="fill:#010002;"
         d="M31.716,13.5C31.699,6.47,25.974,0.755,18.94,0.755c-7.045,0-12.777,5.732-12.777,12.777    c0,0.022,0.004,0.043,0.004,0.065C2.477,15.84,0,19.887,0,24.511c0,7.046,5.731,12.777,12.777,12.777    c2.268,0,4.395-0.601,6.244-1.642c1.849,1.041,3.977,1.642,6.245,1.642c7.046,0,12.777-5.732,12.777-12.777    C38.043,19.82,35.495,15.722,31.716,13.5z M19.021,32.961c-2.312-1.713-3.906-4.341-4.22-7.352c1.3,0.448,2.689,0.702,4.139,0.702    c1.514,0,2.96-0.278,4.307-0.764C22.949,28.584,21.349,31.236,19.021,32.961z M8.517,14.898c1.303-0.579,2.743-0.909,4.26-0.909    c1.475,0,2.879,0.307,4.154,0.858c-2.114,1.826-3.629,4.325-4.195,7.167C10.473,20.352,8.898,17.814,8.517,14.898z M18.94,24.055    c-1.457,0-2.846-0.298-4.109-0.837c0.361-2.928,1.929-5.482,4.19-7.157c2.243,1.662,3.802,4.187,4.18,7.085    C21.897,23.727,20.457,24.055,18.94,24.055z M21.111,14.846c1.275-0.55,2.679-0.858,4.154-0.858c1.457,0,2.846,0.298,4.11,0.837    c-0.356,2.885-1.883,5.404-4.089,7.082C24.704,19.108,23.199,16.65,21.111,14.846z M18.94,3.01c5.432,0,9.915,4.137,10.466,9.425    c-1.3-0.447-2.689-0.702-4.14-0.702c-2.268,0-4.396,0.601-6.245,1.642c-1.848-1.041-3.975-1.642-6.244-1.642    c-1.514,0-2.96,0.278-4.307,0.763C8.993,7.179,13.488,3.01,18.94,3.01z M12.777,35.034c-5.803,0-10.523-4.72-10.523-10.523    c0-3.418,1.645-6.451,4.177-8.375c0.744,3.581,2.999,6.607,6.059,8.408c0.011,3.847,1.735,7.293,4.442,9.631    C15.656,34.727,14.253,35.034,12.777,35.034z M25.266,35.034c-1.475,0-2.879-0.307-4.154-0.858    c2.715-2.345,4.444-5.804,4.444-9.664c0-0.022-0.004-0.044-0.004-0.065c3.007-1.829,5.209-4.852,5.918-8.416    c2.613,1.917,4.319,4.999,4.319,8.48C35.788,30.313,31.068,35.034,25.266,35.034z"
         id="path2" /></g></g><g
     id="g8" /><g
     id="g10" /><g
     id="g12" /><g
     id="g14" /><g
     id="g16" /><g
     id="g18" /><g
     id="g20" /><g
     id="g22" /><g
     id="g24" /><g
     id="g26" /><g
     id="g28" /><g
     id="g30" /><g
     id="g32" /><g
     id="g34" /><g
     id="g36" /><path
     style="fill:#61dafb;fill-opacity:1;fill-rule:nonzero;stroke:#ec7911;stroke-width:0.60927266;stroke-miterlimit:4;stroke-dasharray:none;stroke-opacity:0"
     d="M 9.6853344,36.808191 C 7.5068689,36.272854 5.4734169,35.109048 3.8098334,33.445464 -0.28473382,29.350897 -1.0797839,23.144797 1.8454078,18.11131 2.5835414,16.841177 4.2596587,14.993123 5.3595734,14.236662 6.1503121,13.692835 6.1613065,13.673476 6.2673121,12.638345 6.4351999,10.998943 6.787502,9.6572044 7.3957317,8.340771 9.546865,3.6849248 13.92189,0.86374228 18.976118,0.87329735 c 3.348162,0.00633 6.137859,1.12334505 8.607417,3.44647475 2.221069,2.0893748 3.566788,4.7312207 3.948176,7.7508589 0.192456,1.52377 0.2055,1.556044 0.766723,1.897045 0.976018,0.593033 2.759017,2.405941 3.553647,3.613255 1.532656,2.328632 2.20036,4.816693 2.047173,7.628373 -0.285446,5.239291 -3.693991,9.679185 -8.737562,11.381349 -1.041599,0.351533 -1.681043,0.450309 -3.324805,0.513591 -2.363261,0.09098 -3.698378,-0.142281 -5.621983,-0.982243 l -1.209025,-0.527931 -0.96722,0.447497 c -2.414323,1.117022 -5.700267,1.418589 -8.3533246,0.766624 z m 5.8471756,-2.09374 c 0.657278,-0.182141 1.255886,-0.368764 1.330241,-0.414718 0.07435,-0.04595 -0.309725,-0.567938 -0.853511,-1.159967 -1.913072,-2.082791 -3.146939,-4.79895 -3.327725,-7.325449 l -0.08957,-1.251732 -0.984321,-0.70353 C 9.3425762,22.24014 7.5984658,19.805873 6.7620135,17.096004 L 6.4212868,15.992145 5.5864196,16.742762 c -1.1452883,1.029713 -2.2564435,2.760994 -2.8370482,4.420381 -0.4274217,1.221585 -0.4874342,1.6129 -0.4973583,3.243049 -0.019044,3.1281 0.8676029,5.310209 3.0512905,7.50947 1.0207252,1.028005 1.5827888,1.444761 2.6621419,1.973908 0.7525267,0.36892 1.7672088,0.77518 2.2548495,0.902797 1.35863,0.355558 3.881504,0.318554 5.312215,-0.07792 z m 12.258953,0.08018 c 1.851662,-0.435115 3.309354,-1.278332 4.853783,-2.807715 1.119699,-1.108792 1.51748,-1.639184 2.058399,-2.744618 2.031195,-4.150995 1.289756,-8.857934 -1.910811,-12.130555 -0.585291,-0.598467 -1.133945,-1.086399 -1.21923,-1.084293 -0.08529,0.0021 -0.358959,0.64264 -0.608165,1.423407 -0.249204,0.780768 -0.747639,1.911384 -1.10763,2.512481 -0.771228,1.287758 -2.392874,3.055508 -3.503903,3.819585 -0.777725,0.534858 -0.790631,0.557757 -0.896392,1.590494 -0.323579,3.159704 -1.509276,5.776679 -3.588316,7.919843 -0.517668,0.533633 -0.809854,0.951061 -0.709239,1.013245 0.09411,0.05816 0.699791,0.244262 1.345961,0.413556 1.455954,0.381453 3.836647,0.41504 5.285543,0.07457 z M 20.404246,31.8038 c 0.836102,-0.863066 1.285739,-1.510101 1.820371,-2.619555 0.639541,-1.327156 1.221533,-3.373778 1.017432,-3.577879 -0.04378,-0.04378 -0.507039,0.03899 -1.029462,0.183938 -1.577093,0.437567 -4.405134,0.483012 -6.027567,0.09686 -0.753516,-0.179344 -1.399898,-0.296211 -1.436404,-0.259705 -0.10122,0.10122 0.307244,1.818497 0.654513,2.751724 0.626549,1.683747 2.921292,4.57079 3.633056,4.57079 0.141732,0 0.75736,-0.515777 1.368061,-1.146172 z m 1.797827,-8.193291 1.100548,-0.353371 -0.11225,-0.674799 c -0.167823,-1.008879 -0.770108,-2.572908 -1.383232,-3.592021 -0.600313,-0.99782 -2.454737,-2.966702 -2.794236,-2.966702 -0.438385,0 -2.601976,2.525622 -3.198027,3.733147 -0.629116,1.274514 -1.184668,3.320503 -0.962067,3.543103 0.07517,0.07517 0.677657,0.282584 1.338855,0.460913 1.619376,0.43676 4.398543,0.367275 6.010409,-0.15027 z M 12.97058,21.303027 c 0.510103,-1.90495 1.738001,-4.059759 3.188652,-5.595692 0.457382,-0.484272 0.831605,-0.899297 0.831605,-0.92228 0,-0.02298 -0.525926,-0.206325 -1.168725,-0.407428 -1.696368,-0.530719 -4.381609,-0.521956 -6.1354432,0.02002 l -1.259041,0.389074 0.10978,0.649782 c 0.1609991,0.952946 0.6296561,2.234449 1.2270618,3.355296 0.5182374,0.972313 2.4974974,3.196341 2.8445644,3.196341 0.09795,0 0.260644,-0.308302 0.361546,-0.685115 z m 13.570669,-0.415951 c 1.430593,-1.529421 2.521076,-3.633871 2.780937,-5.366747 l 0.110894,-0.739496 -0.644499,-0.257878 c -1.76123,-0.704704 -4.63836,-0.751318 -6.7009,-0.108566 l -1.109483,0.345751 0.727878,0.752641 c 1.597016,1.651343 2.56031,3.258052 3.183559,5.309968 0.409321,1.347601 0.449786,1.349177 1.651614,0.06433 z m -6.683694,-7.827365 c 2.193927,-1.109868 5.252529,-1.505924 7.738951,-1.00211 0.726933,0.147295 1.430888,0.30971 1.564343,0.360922 C 29.898848,12.70172 28.918494,9.4575783 27.722357,7.6583321 26.431555,5.7166887 24.284387,4.100285 22.068743,3.4022514 21.137911,3.1089946 20.573364,3.0482602 18.844676,3.0554035 16.98682,3.06308 16.613782,3.1131889 15.55707,3.4970131 12.131539,4.7412501 9.8591418,7.1256755 8.7878215,10.599983 c -0.1874202,0.607806 -0.3407642,1.287272 -0.3407642,1.509923 0,0.337368 0.060436,0.39075 0.3627077,0.320372 2.506451,-0.583578 2.856648,-0.626198 4.553996,-0.554233 1.427767,0.06054 2.066981,0.174009 3.280975,0.582436 0.829256,0.278989 1.661488,0.614944 1.849406,0.746567 0.442969,0.310268 0.468093,0.30759 1.363413,-0.145337 z"
     id="path123"
     inkscape:connector-curvature="0" /></svg>